<mxfile host="Electron" modified="2024-10-09T07:14:34.983Z" agent="Mozilla/5.0 (Macintosh; Intel Mac OS X 10_15_7) AppleWebKit/537.36 (KHTML, like Gecko) draw.io/22.1.2 Chrome/114.0.5735.289 Electron/25.9.4 Safari/537.36" etag="1GLhB9d7WJCL2Bw-K-34" version="22.1.2" type="device">
  <diagram name="第1頁" id="gq_dAAxRhSt2FnhtEQcW">
    <mxGraphModel dx="1602" dy="587" grid="1" gridSize="10" guides="1" tooltips="1" connect="1" arrows="1" fold="1" page="1" pageScale="1" pageWidth="827" pageHeight="1169" math="0" shadow="0">
      <root>
        <mxCell id="0" />
        <mxCell id="1" parent="0" />
        <mxCell id="P0tX6MLZ6tOh-OeE1x9M-3" value="10000 ABA tasks sample" style="rounded=0;whiteSpace=wrap;html=1;" vertex="1" parent="1">
          <mxGeometry x="300" y="630" width="120" height="60" as="geometry" />
        </mxCell>
        <mxCell id="P0tX6MLZ6tOh-OeE1x9M-8" value="" style="rounded=0;whiteSpace=wrap;html=1;fillColor=#ADADAD;" vertex="1" parent="1">
          <mxGeometry x="420" y="360" width="140" height="210" as="geometry" />
        </mxCell>
        <mxCell id="P0tX6MLZ6tOh-OeE1x9M-9" value="Generator" style="text;html=1;align=center;verticalAlign=middle;resizable=0;points=[];autosize=1;strokeColor=none;fillColor=none;" vertex="1" parent="1">
          <mxGeometry x="450" y="328" width="80" height="30" as="geometry" />
        </mxCell>
        <mxCell id="P0tX6MLZ6tOh-OeE1x9M-33" style="edgeStyle=orthogonalEdgeStyle;rounded=0;orthogonalLoop=1;jettySize=auto;html=1;exitX=1;exitY=0.5;exitDx=0;exitDy=0;" edge="1" parent="1" source="P0tX6MLZ6tOh-OeE1x9M-10">
          <mxGeometry relative="1" as="geometry">
            <mxPoint x="670" y="440" as="targetPoint" />
          </mxGeometry>
        </mxCell>
        <mxCell id="P0tX6MLZ6tOh-OeE1x9M-10" value="LLM" style="rounded=0;whiteSpace=wrap;html=1;" vertex="1" parent="1">
          <mxGeometry x="430" y="410" width="120" height="60" as="geometry" />
        </mxCell>
        <mxCell id="P0tX6MLZ6tOh-OeE1x9M-13" value="" style="rounded=0;whiteSpace=wrap;html=1;fillColor=#ADADAD;" vertex="1" parent="1">
          <mxGeometry x="100" y="360" width="300" height="210" as="geometry" />
        </mxCell>
        <mxCell id="P0tX6MLZ6tOh-OeE1x9M-14" value="Retriever" style="text;html=1;align=center;verticalAlign=middle;resizable=0;points=[];autosize=1;strokeColor=none;fillColor=none;" vertex="1" parent="1">
          <mxGeometry x="215" y="328" width="70" height="30" as="geometry" />
        </mxCell>
        <mxCell id="P0tX6MLZ6tOh-OeE1x9M-1" value="vector db" style="shape=cylinder3;whiteSpace=wrap;html=1;boundedLbl=1;backgroundOutline=1;size=15;" vertex="1" parent="1">
          <mxGeometry x="330" y="480" width="60" height="80" as="geometry" />
        </mxCell>
        <mxCell id="P0tX6MLZ6tOh-OeE1x9M-16" style="edgeStyle=orthogonalEdgeStyle;rounded=0;orthogonalLoop=1;jettySize=auto;html=1;entryX=0.5;entryY=1;entryDx=0;entryDy=0;entryPerimeter=0;" edge="1" parent="1" source="P0tX6MLZ6tOh-OeE1x9M-3" target="P0tX6MLZ6tOh-OeE1x9M-1">
          <mxGeometry relative="1" as="geometry" />
        </mxCell>
        <mxCell id="P0tX6MLZ6tOh-OeE1x9M-30" style="edgeStyle=orthogonalEdgeStyle;rounded=0;orthogonalLoop=1;jettySize=auto;html=1;exitX=0.5;exitY=0;exitDx=0;exitDy=0;entryX=0;entryY=0.5;entryDx=0;entryDy=0;" edge="1" parent="1" source="P0tX6MLZ6tOh-OeE1x9M-19" target="P0tX6MLZ6tOh-OeE1x9M-10">
          <mxGeometry relative="1" as="geometry" />
        </mxCell>
        <mxCell id="P0tX6MLZ6tOh-OeE1x9M-31" value="Input + relevant information" style="edgeLabel;html=1;align=center;verticalAlign=middle;resizable=0;points=[];" vertex="1" connectable="0" parent="P0tX6MLZ6tOh-OeE1x9M-30">
          <mxGeometry x="-0.35" y="1" relative="1" as="geometry">
            <mxPoint x="49" y="-9" as="offset" />
          </mxGeometry>
        </mxCell>
        <mxCell id="P0tX6MLZ6tOh-OeE1x9M-32" value="4" style="edgeLabel;html=1;align=center;verticalAlign=middle;resizable=0;points=[];" vertex="1" connectable="0" parent="P0tX6MLZ6tOh-OeE1x9M-30">
          <mxGeometry x="-0.5714" y="-1" relative="1" as="geometry">
            <mxPoint as="offset" />
          </mxGeometry>
        </mxCell>
        <mxCell id="P0tX6MLZ6tOh-OeE1x9M-19" value="Search relevant information" style="rounded=0;whiteSpace=wrap;html=1;" vertex="1" parent="1">
          <mxGeometry x="140" y="490" width="120" height="60" as="geometry" />
        </mxCell>
        <mxCell id="P0tX6MLZ6tOh-OeE1x9M-21" value="" style="endArrow=classic;html=1;rounded=0;entryX=0;entryY=0.5;entryDx=0;entryDy=0;" edge="1" parent="1" target="P0tX6MLZ6tOh-OeE1x9M-19">
          <mxGeometry width="50" height="50" relative="1" as="geometry">
            <mxPoint x="30" y="540" as="sourcePoint" />
            <mxPoint x="270" y="390" as="targetPoint" />
          </mxGeometry>
        </mxCell>
        <mxCell id="P0tX6MLZ6tOh-OeE1x9M-28" value="1" style="edgeLabel;html=1;align=center;verticalAlign=middle;resizable=0;points=[];" vertex="1" connectable="0" parent="P0tX6MLZ6tOh-OeE1x9M-21">
          <mxGeometry x="-0.3504" y="-2" relative="1" as="geometry">
            <mxPoint y="-1" as="offset" />
          </mxGeometry>
        </mxCell>
        <mxCell id="P0tX6MLZ6tOh-OeE1x9M-22" value="" style="endArrow=classic;html=1;rounded=0;exitX=1;exitY=0.75;exitDx=0;exitDy=0;entryX=0;entryY=0;entryDx=0;entryDy=52.5;entryPerimeter=0;" edge="1" parent="1" source="P0tX6MLZ6tOh-OeE1x9M-19" target="P0tX6MLZ6tOh-OeE1x9M-1">
          <mxGeometry width="50" height="50" relative="1" as="geometry">
            <mxPoint x="220" y="440" as="sourcePoint" />
            <mxPoint x="270" y="390" as="targetPoint" />
          </mxGeometry>
        </mxCell>
        <mxCell id="P0tX6MLZ6tOh-OeE1x9M-24" value="2" style="edgeLabel;html=1;align=center;verticalAlign=middle;resizable=0;points=[];" vertex="1" connectable="0" parent="P0tX6MLZ6tOh-OeE1x9M-22">
          <mxGeometry x="-0.2876" y="-2" relative="1" as="geometry">
            <mxPoint as="offset" />
          </mxGeometry>
        </mxCell>
        <mxCell id="P0tX6MLZ6tOh-OeE1x9M-26" value="" style="endArrow=classic;html=1;rounded=0;entryX=0.983;entryY=0.383;entryDx=0;entryDy=0;entryPerimeter=0;exitX=0;exitY=0;exitDx=0;exitDy=27.5;exitPerimeter=0;" edge="1" parent="1" source="P0tX6MLZ6tOh-OeE1x9M-1" target="P0tX6MLZ6tOh-OeE1x9M-19">
          <mxGeometry width="50" height="50" relative="1" as="geometry">
            <mxPoint x="220" y="440" as="sourcePoint" />
            <mxPoint x="270" y="390" as="targetPoint" />
          </mxGeometry>
        </mxCell>
        <mxCell id="P0tX6MLZ6tOh-OeE1x9M-27" value="3" style="edgeLabel;html=1;align=center;verticalAlign=middle;resizable=0;points=[];" vertex="1" connectable="0" parent="P0tX6MLZ6tOh-OeE1x9M-26">
          <mxGeometry x="-0.4214" y="-2" relative="1" as="geometry">
            <mxPoint as="offset" />
          </mxGeometry>
        </mxCell>
        <mxCell id="P0tX6MLZ6tOh-OeE1x9M-29" value="Input" style="text;html=1;align=center;verticalAlign=middle;resizable=0;points=[];autosize=1;strokeColor=none;fillColor=none;" vertex="1" parent="1">
          <mxGeometry x="-20" y="530" width="50" height="30" as="geometry" />
        </mxCell>
        <mxCell id="P0tX6MLZ6tOh-OeE1x9M-34" value="Response" style="text;html=1;align=center;verticalAlign=middle;resizable=0;points=[];autosize=1;strokeColor=none;fillColor=none;" vertex="1" parent="1">
          <mxGeometry x="670" y="425" width="80" height="30" as="geometry" />
        </mxCell>
      </root>
    </mxGraphModel>
  </diagram>
</mxfile>
